<svg id="Ebene_1" data-name="Ebene 1" xmlns="http://www.w3.org/2000/svg" xmlns:xlink="http://www.w3.org/1999/xlink" viewBox="0 0 792.16 90.91"><defs><style>.cls-1{fill:none;}.cls-2{clip-path:url(#clip-path);}.cls-3{fill:#d72622;}</style><clipPath id="clip-path" transform="translate(-21.86 -244.19)"><rect class="cls-1" x="20.04" y="239.52" width="802.57" height="99.48"/></clipPath></defs><title>TEAMS_WORK_Schriftzug_abfallend_1zeilig_rot_RGB_r12</title><g class="cls-2"><path class="cls-3" d="M814,327.25a7.16,7.16,0,1,0-7.16,7.16,7.24,7.24,0,0,0,7.16-7.16m-26.62,7.09-32.14-54.87,28.13-34.53H771.71L730,296.3V244.94h-9.54v89.4H730v-25l18.83-22.6,27.25,47.59ZM685.58,269.93c0,10.92-7.41,16.32-17.83,16.32H643.89V253.48h23.86c10.42,0,17.83,5.52,17.83,16.45m11.3,64.41-21.22-40.56c11.55-2.39,19.46-10.93,19.46-24,0-15.44-10.92-24.86-26.49-24.86H634.35v89.4h9.54V294.66h21.47l20.34,39.68Zm-94.55-44.7c0,18.33-.63,24.86-6.28,30.64a22.13,22.13,0,0,1-30.89,0c-5.65-5.78-6.28-12.3-6.28-30.64s.63-24.86,6.28-30.64a22.14,22.14,0,0,1,30.89,0c5.65,5.78,6.28,12.3,6.28,30.64m9.54,0c0-20.47-.63-28.25-9-36.66-5.52-5.52-12.93-8.79-22.22-8.79s-16.82,3.27-22.35,8.79c-8.41,8.41-8.91,16.2-8.91,36.66s.5,28.25,8.91,36.66c5.53,5.53,13.06,8.79,22.35,8.79s16.7-3.26,22.22-8.79c8.41-8.41,9-16.2,9-36.66m-74.08-44.7H527.62L510.17,317l-19.71-72.07h-8.54L462.2,317l-17.45-72.07H434.58l22.85,89.4h8.91l19.84-71.57L506,334.34h8.91ZM405.7,309.73c0-7.41-2.76-13.44-7.53-17.58-4-3.64-7.91-5.15-16.2-6.4l-10.42-1.63c-4.65-.75-8.91-2.26-11.68-4.65s-4-6-4-10.42c0-10,6.91-16.7,19-16.7,9.29,0,15.44,2.64,20.84,7.78l6.15-6.15c-7.66-6.78-15.19-9.79-26.62-9.79-17.7,0-28.63,9.92-28.63,25.11,0,7.28,2.38,12.81,6.91,16.83,4,3.52,9.29,5.65,16.32,6.78l10.42,1.51c6.4,1,8.91,1.88,11.68,4.39,3,2.64,4.39,6.4,4.39,11.18,0,10.55-8,16.57-21.22,16.57-10,0-17-2.26-24.36-9.67l-6.4,6.4c8.29,8.41,17.2,11.8,30.51,11.8,18.71,0,30.89-9.67,30.89-25.36m-75.34,24.61v-89.4h-9.54l-28.38,63.41-29.13-63.41h-9.54v89.4h9.54V266.41l24.86,53.87h8.16l24.48-53.87v67.93Zm-110.49-28.5h-33.4l16.83-47.21ZM240,334.34l-32.77-89.4h-8l-32.9,89.4h10.17l7.16-20.22h39l7.16,20.22Zm-88.39,0V325.8h-46V293.53h39.18V285H105.61V253.48h46v-8.54H96.07v89.4ZM83.14,253.48v-8.54H21.86v8.54H47.73v80.86h9.54V253.48Z" transform="translate(-21.86 -244.19)"/></g></svg>